<svg width="123" height="53" viewBox="0 0 123 53" fill="none" xmlns="http://www.w3.org/2000/svg">
<g id="Isotipo">
<path id="Vector" d="M84.6966 31.8V21.2C96.3684 21.2 105.87 11.6863 105.87 0H100.577C100.577 8.77166 93.4623 15.9 84.6966 15.9V0H82.0494C71.1187 0 61.7493 6.65048 57.6999 16.1117C56.1624 13.8307 54.1368 11.9212 51.7701 10.522C49.4034 9.12278 46.7552 8.269 44.0178 8.02266C41.2803 7.77633 38.5225 8.14363 35.9445 9.09789C33.3666 10.0521 31.0333 11.5694 29.1143 13.5394V5.3H23.8209V0.131585C10.4811 1.45634 0 12.7993 0 26.5C0 41.101 11.8862 53 26.4681 53H29.1143V39.4606C31.0333 41.4306 33.3666 42.9479 35.9445 43.9021C38.5225 44.8564 41.2803 45.2237 44.0178 44.9773C46.7552 44.731 49.4034 43.8772 51.7701 42.478C54.1368 41.0788 56.1624 39.1693 57.6999 36.8883C61.4311 45.5808 69.6365 51.888 79.4032 52.8417V47.697H84.6966V37.1C93.4574 37.1 100.577 44.2283 100.577 53H105.87C105.87 41.3137 96.3714 31.8 84.6966 31.8ZM23.8209 47.5407C13.3931 46.216 5.2944 37.284 5.2944 26.5C5.2944 15.716 13.3971 6.78404 23.8209 5.45929V47.5407ZM42.3483 39.7505C39.7309 39.7505 37.1722 38.9734 34.9959 37.5174C32.8196 36.0614 31.1233 33.992 30.1217 31.5707C29.12 29.1495 28.8579 26.4853 29.3686 23.915C29.8792 21.3446 31.1396 18.9836 32.9904 17.1305C34.8413 15.2774 37.1993 14.0154 39.7665 13.5041C42.3336 12.9928 44.9946 13.2552 47.4128 14.2581C49.831 15.261 51.8978 16.9594 53.352 19.1384C54.8062 21.3175 55.5824 23.8793 55.5824 26.5C55.5805 30.0137 54.1856 33.3829 51.7042 35.8675C49.2227 38.352 45.8576 39.7487 42.3483 39.7505ZM79.4032 47.5407C68.9745 46.216 60.8758 37.284 60.8758 26.5C60.8758 15.716 68.9784 6.78404 79.4032 5.45929V47.5407Z" fill="#AA83FF"/>
<path id="Vector_2" d="M114.703 4.93888V0.615382H112.902V0H117.191V0.615382H115.404V4.93888H114.703ZM122.068 4.93888L122.096 1.116L120.437 3.62205H119.966L118.308 1.08731L118.322 4.93888H117.616V0H118.446L120.19 2.66237L121.969 0H122.784V4.93888H122.068Z" fill="#151426"/>
</g>
</svg>

