<svg width="102" height="48" viewBox="0 0 102 48" fill="none" xmlns="http://www.w3.org/2000/svg">
<g clip-path="url(#clip0_149_254)">
<path d="M96 0H5.33333C2.38781 0 0 2.38781 0 5.33333V42.6667C0 45.6122 2.38781 48 5.33333 48H96C98.9455 48 101.333 45.6122 101.333 42.6667V5.33333C101.333 2.38781 98.9455 0 96 0Z" fill="#78FFAD"/>
<path d="M44.9333 44H27.0667C26.4888 44 25.9167 43.8862 25.3829 43.6651C24.849 43.444 24.364 43.1198 23.9554 42.7113C23.5468 42.3027 23.2227 41.8176 23.0016 41.2838C22.7805 40.75 22.6667 40.1778 22.6667 39.6V29.7333C22.6667 29.5057 22.6218 29.2803 22.5347 29.07C22.4476 28.8597 22.3199 28.6686 22.159 28.5077C21.998 28.3467 21.8069 28.2191 21.5967 28.1319C21.3864 28.0448 21.161 28 20.9333 28H8.4C7.23305 28 6.11389 27.5364 5.28873 26.7113C4.46357 25.8861 4 24.767 4 23.6V8.4C4 7.23305 4.46357 6.11389 5.28873 5.28873C6.11389 4.46357 7.23305 4 8.4 4H26.2667C27.4336 4 28.5528 4.46357 29.3779 5.28873C30.2031 6.11389 30.6667 7.23305 30.6667 8.4V18.2667C30.6667 18.7264 30.8493 19.1673 31.1743 19.4923C31.4994 19.8174 31.9403 20 32.4 20H39.6C40.0597 20 40.5006 19.8174 40.8256 19.4923C41.1507 19.1673 41.3333 18.7264 41.3333 18.2667V8.4C41.3333 7.23305 41.7969 6.11389 42.6221 5.28873C43.4472 4.46357 44.5664 4 45.7333 4H92.9333C94.1003 4 95.2194 4.46357 96.0446 5.28873C96.8698 6.11389 97.3333 7.23305 97.3333 8.4V23.6C97.3333 24.767 96.8698 25.8861 96.0446 26.7113C95.2194 27.5364 94.1003 28 92.9333 28H51.0667C50.607 28 50.1661 28.1826 49.841 28.5077C49.5159 28.8327 49.3333 29.2736 49.3333 29.7333V39.6C49.3333 40.767 48.8698 41.8861 48.0446 42.7113C47.2194 43.5364 46.1003 44 44.9333 44ZM8.4 6.66667C7.94029 6.66667 7.49941 6.84929 7.17435 7.17435C6.84928 7.49941 6.66667 7.94029 6.66667 8.4V23.6C6.66667 24.0597 6.84928 24.5006 7.17435 24.8257C7.49941 25.1507 7.94029 25.3333 8.4 25.3333H20.9333C22.1003 25.3333 23.2194 25.7969 24.0446 26.6221C24.8698 27.4472 25.3333 28.5664 25.3333 29.7333V39.6C25.3333 39.8276 25.3782 40.053 25.4653 40.2633C25.5524 40.4736 25.6801 40.6647 25.841 40.8257C26.002 40.9866 26.193 41.1143 26.4033 41.2014C26.6136 41.2885 26.839 41.3333 27.0667 41.3333H44.9333C45.393 41.3333 45.8339 41.1507 46.159 40.8257C46.484 40.5006 46.6667 40.0597 46.6667 39.6V29.7333C46.6667 29.1555 46.7805 28.5834 47.0016 28.0495C47.2227 27.5157 47.5468 27.0306 47.9554 26.6221C48.364 26.2135 48.849 25.8894 49.3829 25.6683C49.9167 25.4471 50.4888 25.3333 51.0667 25.3333H92.9333C93.393 25.3333 93.8339 25.1507 94.159 24.8257C94.484 24.5006 94.6667 24.0597 94.6667 23.6V8.4C94.6667 7.94029 94.484 7.49941 94.159 7.17435C93.8339 6.84929 93.393 6.66667 92.9333 6.66667H45.7333C45.2736 6.66667 44.8327 6.84929 44.5077 7.17435C44.1826 7.49941 44 7.94029 44 8.4V18.2667C44 19.4336 43.5364 20.5528 42.7113 21.3779C41.8861 22.2031 40.767 22.6667 39.6 22.6667H32.4C31.233 22.6667 30.1139 22.2031 29.2887 21.3779C28.4636 20.5528 28 19.4336 28 18.2667V8.4C28 8.17238 27.9552 7.94698 27.8681 7.73668C27.7809 7.52638 27.6533 7.3353 27.4923 7.17435C27.3314 7.01339 27.1403 6.88572 26.93 6.79861C26.7197 6.7115 26.4943 6.66667 26.2667 6.66667H8.4Z" fill="#AA83FF"/>
<path d="M92 34.6666H62.6667C60.4575 34.6666 58.6667 36.4575 58.6667 38.6666C58.6667 40.8758 60.4575 42.6666 62.6667 42.6666H92C94.2092 42.6666 96 40.8758 96 38.6666C96 36.4575 94.2092 34.6666 92 34.6666Z" fill="#151426"/>
<path d="M88 16C89.4727 16 90.6666 14.8061 90.6666 13.3333C90.6666 11.8605 89.4727 10.6666 88 10.6666C86.5272 10.6666 85.3333 11.8605 85.3333 13.3333C85.3333 14.8061 86.5272 16 88 16Z" fill="#AA83FF"/>
<path d="M80 16C81.4727 16 82.6666 14.8061 82.6666 13.3333C82.6666 11.8605 81.4727 10.6666 80 10.6666C78.5272 10.6666 77.3333 11.8605 77.3333 13.3333C77.3333 14.8061 78.5272 16 80 16Z" fill="#151426"/>
<path d="M72 16C73.4727 16 74.6666 14.8061 74.6666 13.3333C74.6666 11.8605 73.4727 10.6666 72 10.6666C70.5272 10.6666 69.3333 11.8605 69.3333 13.3333C69.3333 14.8061 70.5272 16 72 16Z" fill="#AA83FF"/>
<path d="M64 16C65.4727 16 66.6666 14.8061 66.6666 13.3333C66.6666 11.8605 65.4727 10.6666 64 10.6666C62.5272 10.6666 61.3333 11.8605 61.3333 13.3333C61.3333 14.8061 62.5272 16 64 16Z" fill="#151426"/>
<path d="M56 16C57.4727 16 58.6666 14.8061 58.6666 13.3333C58.6666 11.8605 57.4727 10.6666 56 10.6666C54.5272 10.6666 53.3333 11.8605 53.3333 13.3333C53.3333 14.8061 54.5272 16 56 16Z" fill="#AA83FF"/>
</g>
<defs>
<clipPath id="clip0_149_254">
<rect width="101.333" height="48" fill="white"/>
</clipPath>
</defs>
</svg>
