<svg width="49" height="48" viewBox="0 0 49 48" fill="none" xmlns="http://www.w3.org/2000/svg">
<mask id="mask0_149_240" style="mask-type:luminance" maskUnits="userSpaceOnUse" x="0" y="0" width="49" height="48">
<path d="M43 0H5.66665C2.72113 0 0.333313 2.38781 0.333313 5.33333V42.6667C0.333313 45.6122 2.72113 48 5.66665 48H43C45.9455 48 48.3333 45.6122 48.3333 42.6667V5.33333C48.3333 2.38781 45.9455 0 43 0Z" fill="white"/>
</mask>
<g mask="url(#mask0_149_240)">
<path d="M48.3333 0H0.333313V48H48.3333V0Z" fill="#78FFAD"/>
<path d="M-10.3334 41.0667H-15.6667C-15.6526 25.936 -9.63567 11.4291 1.06335 0.730038C11.7624 -9.96898 26.2693 -15.9859 41.4 -16V-10.6667C27.6838 -10.6525 14.5334 -5.19755 4.83458 4.50127C-4.86424 14.2001 -10.3192 27.3505 -10.3334 41.0667Z" fill="#AA83FF"/>
<path d="M-1.2667 50.1334H-6.60004C-6.58592 35.0028 -0.569016 20.4958 10.13 9.79681C20.829 -0.902207 35.3359 -6.91911 50.4666 -6.93323V-1.59989C36.7504 -1.58578 23.6001 3.86922 13.9012 13.568C4.20241 23.2669 -1.25258 36.4172 -1.2667 50.1334Z" fill="#AA83FF"/>
<path d="M7.79998 59.2001H2.46664C2.48077 44.0694 8.49766 29.5625 19.1967 18.8635C29.8957 8.16444 44.4026 2.14754 59.5333 2.13342V7.46676C45.8171 7.48087 32.6667 12.9359 22.9679 22.6347C13.2691 32.3335 7.8141 45.4839 7.79998 59.2001Z" fill="#151426"/>
<path d="M16.8667 68.2665H11.5333C11.5474 53.1358 17.5643 38.6289 28.2634 27.9299C38.9624 17.2308 53.4693 11.214 68.6 11.1998V16.5332C54.8838 16.5473 41.7334 22.0023 32.0346 31.7011C22.3358 41.3999 16.8808 54.5503 16.8667 68.2665Z" fill="#AA83FF"/>
<path d="M25.9333 77.3333H20.6C20.6141 62.2026 26.631 47.6957 37.33 36.9966C48.029 26.2976 62.536 20.2807 77.6666 20.2666V25.5999C63.9504 25.6141 50.8001 31.069 41.1012 40.7679C31.4024 50.4667 25.9474 63.6171 25.9333 77.3333Z" fill="#AA83FF"/>
</g>
</svg>
