<svg width="49" height="48" viewBox="0 0 49 48" fill="none" xmlns="http://www.w3.org/2000/svg">
<g clip-path="url(#clip0_149_274)">
<path d="M43.3333 0H5.99996C3.05444 0 0.666626 2.38781 0.666626 5.33333V42.6667C0.666626 45.6122 3.05444 48 5.99996 48H43.3333C46.2788 48 48.6666 45.6122 48.6666 42.6667V5.33333C48.6666 2.38781 46.2788 0 43.3333 0Z" fill="#AA83FF"/>
<path d="M27.3333 5.33337H21.9999V42.6667H27.3333V5.33337Z" fill="#78FFAD"/>
<path d="M43.3333 21.3334H5.99994V26.6667H43.3333V21.3334Z" fill="#78FFAD"/>
<path d="M13.3473 8.91504L9.57611 12.6863L35.9748 39.0849L39.746 35.3137L13.3473 8.91504Z" fill="#78FFAD"/>
<path d="M35.9748 8.91507L9.57611 35.3137L13.3473 39.085L39.746 12.6863L35.9748 8.91507Z" fill="#78FFAD"/>
<path d="M24.6611 20.2288L20.8898 24L24.6611 27.7712L28.4323 24L24.6611 20.2288Z" fill="#151426"/>
</g>
<defs>
<clipPath id="clip0_149_274">
<rect width="48" height="48" fill="white" transform="translate(0.666626)"/>
</clipPath>
</defs>
</svg>
