<svg width="49" height="48" viewBox="0 0 49 48" fill="none" xmlns="http://www.w3.org/2000/svg">
<g clip-path="url(#clip0_149_232)">
<path d="M43.3334 0H6.00008C3.05456 0 0.666748 2.38781 0.666748 5.33333V42.6667C0.666748 45.6122 3.05456 48 6.00008 48H43.3334C46.2789 48 48.6667 45.6122 48.6667 42.6667V5.33333C48.6667 2.38781 46.2789 0 43.3334 0Z" fill="#78FFAD"/>
<path d="M20.8711 6.4449L7.08728 20.2288C5.00448 22.3116 5.00448 25.6884 7.08728 27.7712L20.8711 41.5551C22.9539 43.6379 26.3308 43.6379 28.4136 41.5551L42.1975 27.7712C44.2803 25.6884 44.2803 22.3116 42.1975 20.2288L28.4136 6.4449C26.3308 4.3621 22.9539 4.3621 20.8711 6.4449Z" fill="#AA83FF"/>
<path d="M32.6668 10.6667H16.6668C13.7212 10.6667 11.3334 13.0545 11.3334 16V32C11.3334 34.9455 13.7212 37.3334 16.6668 37.3334H32.6668C35.6123 37.3334 38.0001 34.9455 38.0001 32V16C38.0001 13.0545 35.6123 10.6667 32.6668 10.6667Z" fill="#151426"/>
<path d="M35.3393 23.9944L24.6667 13.3218L13.9941 23.9944L24.6667 34.667L35.3393 23.9944Z" fill="#78FFAD"/>
<path d="M28.4268 27.7867V20.24H20.8801V27.7867H28.4268Z" fill="#151426"/>
</g>
<defs>
<clipPath id="clip0_149_232">
<rect width="48" height="48" fill="white" transform="translate(0.666748)"/>
</clipPath>
</defs>
</svg>
