<svg width="32" height="32" viewBox="0 0 32 32" fill="none" xmlns="http://www.w3.org/2000/svg">
<path d="M16.0013 22.6667V25.84C16.0013 28.3333 15.0013 29.3333 12.4946 29.3333H6.1613C3.66797 29.3333 2.66797 28.3333 2.66797 25.84V19.5067C2.66797 17 3.66797 16 6.1613 16H9.33464V19.16C9.33464 21.6667 10.3346 22.6667 12.828 22.6667H16.0013Z" stroke="white" stroke-width="1.5" stroke-linecap="round" stroke-linejoin="round"/>
<path d="M22.6654 16.0007V19.1607C22.6654 21.6673 21.6654 22.6673 19.1587 22.6673H12.8254C10.332 22.6673 9.33203 21.6673 9.33203 19.1607V12.8273C9.33203 10.334 10.332 9.33398 12.8254 9.33398H15.9987V12.494C15.9987 15.0007 16.9987 16.0007 19.492 16.0007H22.6654Z" stroke="white" stroke-width="1.5" stroke-linecap="round" stroke-linejoin="round"/>
<path d="M29.3333 6.15935V12.4927C29.3333 14.9993 28.3333 15.9993 25.8267 15.9993H19.4933C17 15.9993 16 14.9993 16 12.4927V6.15935C16 3.66602 17 2.66602 19.4933 2.66602H25.8267C28.3333 2.66602 29.3333 3.66602 29.3333 6.15935Z" stroke="white" stroke-width="1.5" stroke-linecap="round" stroke-linejoin="round"/>
</svg>
