<svg width="280" height="26" viewBox="0 0 280 26" fill="none" xmlns="http://www.w3.org/2000/svg">
<rect width="280" height="26" rx="13" fill="#BFE0E2"/>
<path d="M15.9799 13V15.3333C15.9799 16.62 17.0266 17.6667 18.3132 17.6667C19.5999 17.6667 20.6466 16.62 20.6466 15.3333V11.6667C20.6466 9.08667 18.5599 7 15.9799 7C13.3999 7 11.3132 9.08667 11.3132 11.6667V15.6667C11.3132 17.8733 13.1066 19.6667 15.3132 19.6667" stroke="#4F4F4F" stroke-width="1.5" stroke-linecap="round" stroke-linejoin="round"/>
<path d="M39.296 7.512V19H38.112V18.456C37.2907 18.9253 36.48 19.16 35.68 19.16C35.2533 19.16 34.88 19.1067 34.56 19C34.24 18.8933 33.9413 18.7013 33.664 18.424C33.088 17.848 32.8 16.7867 32.8 15.24C32.8 13.6827 33.056 12.5627 33.568 11.88C34.0907 11.1867 34.9493 10.84 36.144 10.84C36.7627 10.84 37.4187 10.9093 38.112 11.048V7.512H39.296ZM34.592 17.56C34.7627 17.7627 34.944 17.9013 35.136 17.976C35.328 18.0507 35.5733 18.088 35.872 18.088C36.1813 18.088 36.5227 18.04 36.896 17.944C37.28 17.8373 37.5787 17.736 37.792 17.64L38.112 17.496V12.072C37.4293 11.944 36.7947 11.88 36.208 11.88C35.3973 11.88 34.832 12.1413 34.512 12.664C34.192 13.176 34.032 13.976 34.032 15.064C34.032 16.3013 34.2187 17.1333 34.592 17.56ZM48.1008 8.44V9.56H42.9648L42.6768 13C43.4981 12.5627 44.3248 12.344 45.1568 12.344C47.3968 12.344 48.5168 13.384 48.5168 15.464C48.5168 16.6587 48.2074 17.5707 47.5888 18.2C46.9701 18.8293 46.1008 19.144 44.9808 19.144C44.0848 19.144 43.0928 19.0267 42.0048 18.792L41.4768 18.68L41.6208 17.704C42.8474 17.9387 43.8768 18.056 44.7088 18.056C45.5514 18.056 46.1861 17.8427 46.6128 17.416C47.0394 16.9787 47.2528 16.3707 47.2528 15.592C47.2528 14.8133 47.0554 14.264 46.6608 13.944C46.2768 13.6133 45.7274 13.448 45.0128 13.448C44.6288 13.448 44.2234 13.5013 43.7968 13.608C43.3808 13.7147 43.0608 13.8213 42.8368 13.928L42.5008 14.088L41.6528 13.928L41.9408 8.44H48.1008ZM53.5659 10.84C53.9179 10.84 54.5152 10.904 55.3579 11.032L55.7419 11.08L55.6939 12.056C54.8405 11.96 54.2112 11.912 53.8059 11.912C52.8992 11.912 52.2805 12.1307 51.9499 12.568C51.6299 12.9947 51.4699 13.7947 51.4699 14.968C51.4699 16.1307 51.6192 16.9413 51.9179 17.4C52.2272 17.8587 52.8619 18.088 53.8219 18.088L55.7099 17.944L55.7579 18.936C54.7659 19.0853 54.0245 19.16 53.5339 19.16C52.2859 19.16 51.4219 18.84 50.9419 18.2C50.4725 17.56 50.2379 16.4827 50.2379 14.968C50.2379 13.4427 50.4939 12.376 51.0059 11.768C51.5179 11.1493 52.3712 10.84 53.5659 10.84ZM57.6226 9.56V8.44H64.1826V10.056L60.1186 19.16L58.9506 18.792L62.9346 9.976V9.56H57.6226ZM68.0318 12.04V19H66.8318V12.04H65.8238V11H66.8318V10.28C66.8318 9.14933 66.9918 8.38133 67.3118 7.976C67.6318 7.56 68.1918 7.352 68.9918 7.352L70.6078 7.464L70.5918 8.456C69.9944 8.43467 69.4984 8.424 69.1038 8.424C68.7198 8.424 68.4424 8.552 68.2718 8.808C68.1118 9.064 68.0318 9.56 68.0318 10.296V11H70.3518V12.04H68.0318ZM75.1046 8.264C75.9793 8.264 76.6886 8.42933 77.2326 8.76C78.3846 9.44267 78.9606 11.1493 78.9606 13.88C78.9606 15.8107 78.6406 17.176 78.0006 17.976C77.3606 18.7653 76.4006 19.16 75.1206 19.16C73.8406 19.16 72.8753 18.7707 72.2246 17.992C71.5846 17.2027 71.2646 15.8053 71.2646 13.8C71.2646 11.784 71.5793 10.36 72.2086 9.528C72.8486 8.68533 73.814 8.264 75.1046 8.264ZM75.1206 9.368C74.5126 9.368 74.0326 9.496 73.6806 9.752C72.9233 10.2747 72.5446 11.656 72.5446 13.896C72.5446 15.4747 72.7526 16.568 73.1686 17.176C73.5846 17.7733 74.2353 18.072 75.1206 18.072C76.006 18.072 76.6566 17.768 77.0726 17.16C77.4886 16.552 77.6966 15.4267 77.6966 13.784C77.6966 12.1307 77.494 10.984 77.0886 10.344C76.694 9.69333 76.038 9.368 75.1206 9.368ZM84.0578 8.264C84.9324 8.264 85.6418 8.42933 86.1858 8.76C87.3378 9.44267 87.9138 11.1493 87.9138 13.88C87.9138 15.8107 87.5938 17.176 86.9538 17.976C86.3138 18.7653 85.3538 19.16 84.0738 19.16C82.7938 19.16 81.8284 18.7707 81.1778 17.992C80.5378 17.2027 80.2178 15.8053 80.2178 13.8C80.2178 11.784 80.5324 10.36 81.1618 9.528C81.8018 8.68533 82.7671 8.264 84.0578 8.264ZM84.0738 9.368C83.4658 9.368 82.9858 9.496 82.6338 9.752C81.8764 10.2747 81.4978 11.656 81.4978 13.896C81.4978 15.4747 81.7058 16.568 82.1218 17.176C82.5378 17.7733 83.1884 18.072 84.0738 18.072C84.9591 18.072 85.6098 17.768 86.0258 17.16C86.4418 16.552 86.6498 15.4267 86.6498 13.784C86.6498 12.1307 86.4471 10.984 86.0418 10.344C85.6471 9.69333 84.9911 9.368 84.0738 9.368ZM96.1789 8.44V9.56H91.0429L90.7549 13C91.5762 12.5627 92.4029 12.344 93.2349 12.344C95.4749 12.344 96.5949 13.384 96.5949 15.464C96.5949 16.6587 96.2855 17.5707 95.6669 18.2C95.0482 18.8293 94.1789 19.144 93.0589 19.144C92.1629 19.144 91.1709 19.0267 90.0829 18.792L89.5549 18.68L89.6989 17.704C90.9255 17.9387 91.9549 18.056 92.7869 18.056C93.6295 18.056 94.2642 17.8427 94.6909 17.416C95.1175 16.9787 95.3309 16.3707 95.3309 15.592C95.3309 14.8133 95.1335 14.264 94.7389 13.944C94.3549 13.6133 93.8055 13.448 93.0909 13.448C92.7069 13.448 92.3015 13.5013 91.8749 13.608C91.4589 13.7147 91.1389 13.8213 90.9149 13.928L90.5789 14.088L89.7309 13.928L90.0189 8.44H96.1789ZM98.652 8.712C99.6547 8.41333 100.727 8.264 101.868 8.264C103.02 8.264 103.852 8.48267 104.364 8.92C104.876 9.35733 105.132 10.056 105.132 11.016C105.132 11.5067 105.063 11.864 104.924 12.088C104.796 12.3013 104.689 12.4667 104.604 12.584C104.529 12.7013 104.428 12.8133 104.3 12.92C104.065 13.1013 103.879 13.2293 103.74 13.304L103.564 13.416C104.183 13.64 104.641 13.928 104.94 14.28C105.239 14.6213 105.388 15.1867 105.388 15.976C105.388 17.0533 105.111 17.8533 104.556 18.376C104.012 18.8987 103.148 19.16 101.964 19.16C101.025 19.16 100.033 19.0533 98.988 18.84L98.492 18.728L98.604 17.72C99.756 17.9547 100.833 18.072 101.836 18.072C103.361 18.0613 104.124 17.3787 104.124 16.024C104.124 14.7547 103.399 14.0933 101.948 14.04H99.82V12.984H101.948C102.396 12.984 102.828 12.808 103.244 12.456C103.66 12.0933 103.868 11.6187 103.868 11.032C103.868 10.4453 103.703 10.024 103.372 9.768C103.041 9.50133 102.487 9.368 101.708 9.368C100.855 9.368 100.012 9.448 99.18 9.608L98.764 9.688L98.652 8.712ZM110.917 8.264C111.792 8.264 112.501 8.42933 113.045 8.76C114.197 9.44267 114.773 11.1493 114.773 13.88C114.773 15.8107 114.453 17.176 113.813 17.976C113.173 18.7653 112.213 19.16 110.933 19.16C109.653 19.16 108.688 18.7707 108.037 17.992C107.397 17.2027 107.077 15.8053 107.077 13.8C107.077 11.784 107.392 10.36 108.021 9.528C108.661 8.68533 109.626 8.264 110.917 8.264ZM110.933 9.368C110.325 9.368 109.845 9.496 109.493 9.752C108.736 10.2747 108.357 11.656 108.357 13.896C108.357 15.4747 108.565 16.568 108.981 17.176C109.397 17.7733 110.048 18.072 110.933 18.072C111.818 18.072 112.469 17.768 112.885 17.16C113.301 16.552 113.509 15.4267 113.509 13.784C113.509 12.1307 113.306 10.984 112.901 10.344C112.506 9.69333 111.85 9.368 110.933 9.368ZM119.87 8.264C120.745 8.264 121.454 8.42933 121.998 8.76C123.15 9.44267 123.726 11.1493 123.726 13.88C123.726 15.8107 123.406 17.176 122.766 17.976C122.126 18.7653 121.166 19.16 119.886 19.16C118.606 19.16 117.641 18.7707 116.99 17.992C116.35 17.2027 116.03 15.8053 116.03 13.8C116.03 11.784 116.345 10.36 116.974 9.528C117.614 8.68533 118.58 8.264 119.87 8.264ZM119.886 9.368C119.278 9.368 118.798 9.496 118.446 9.752C117.689 10.2747 117.31 11.656 117.31 13.896C117.31 15.4747 117.518 16.568 117.934 17.176C118.35 17.7733 119.001 18.072 119.886 18.072C120.772 18.072 121.422 17.768 121.838 17.16C122.254 16.552 122.462 15.4267 122.462 13.784C122.462 12.1307 122.26 10.984 121.854 10.344C121.46 9.69333 120.804 9.368 119.886 9.368ZM128.311 18.072C130.242 18.072 131.213 16.8453 131.223 14.392C130.157 14.7973 129.239 15 128.471 15C126.167 15 125.015 13.928 125.015 11.784C125.015 10.7067 125.346 9.85333 126.007 9.224C126.669 8.59467 127.559 8.28 128.679 8.28C129.97 8.28 130.93 8.76 131.559 9.72C132.189 10.6693 132.503 12.072 132.503 13.928C132.503 15.7733 132.146 17.1067 131.431 17.928C130.727 18.7493 129.687 19.16 128.311 19.16C127.511 19.16 126.685 19.0853 125.831 18.936L125.415 18.872L125.527 17.88C126.487 18.008 127.415 18.072 128.311 18.072ZM128.567 13.912C129.218 13.912 129.97 13.768 130.823 13.48L131.239 13.336C131.207 10.6907 130.354 9.368 128.679 9.368C127.933 9.368 127.346 9.58667 126.919 10.024C126.503 10.4507 126.295 11.0373 126.295 11.784C126.295 13.2027 127.053 13.912 128.567 13.912ZM134.545 9.56V8.44H141.105V10.056L137.041 19.16L135.873 18.792L139.857 9.976V9.56H134.545ZM149.066 13.416V17.512C149.098 17.9067 149.407 18.1413 149.994 18.216L149.946 19.16C149.103 19.16 148.468 18.9467 148.042 18.52C147.082 18.9467 146.122 19.16 145.162 19.16C144.426 19.16 143.866 18.952 143.482 18.536C143.098 18.12 142.906 17.5227 142.906 16.744C142.906 15.9653 143.103 15.3947 143.498 15.032C143.892 14.6587 144.511 14.4293 145.354 14.344L147.866 14.104V13.416C147.866 12.872 147.748 12.4827 147.514 12.248C147.279 12.0133 146.959 11.896 146.554 11.896C145.7 11.896 144.815 11.9493 143.898 12.056L143.402 12.104L143.354 11.192C144.527 10.9573 145.567 10.84 146.474 10.84C147.38 10.84 148.036 11.048 148.442 11.464C148.858 11.88 149.066 12.5307 149.066 13.416ZM144.138 16.68C144.138 17.6613 144.543 18.152 145.354 18.152C146.079 18.152 146.794 18.0293 147.498 17.784L147.866 17.656V15.016L145.498 15.24C145.018 15.2827 144.671 15.4213 144.458 15.656C144.244 15.8907 144.138 16.232 144.138 16.68ZM158.137 19H151.385V17.96L154.473 14.712C155.007 14.1573 155.396 13.736 155.641 13.448C155.887 13.16 156.105 12.8187 156.297 12.424C156.5 12.0293 156.601 11.6347 156.601 11.24C156.601 10.5573 156.415 10.0773 156.041 9.8C155.668 9.52267 155.087 9.384 154.297 9.384C153.604 9.384 152.831 9.47467 151.977 9.656L151.561 9.736L151.465 8.712C152.479 8.424 153.524 8.28 154.601 8.28C155.679 8.28 156.489 8.50933 157.033 8.968C157.588 9.416 157.865 10.1307 157.865 11.112C157.865 11.8587 157.7 12.5093 157.369 13.064C157.039 13.6187 156.468 14.2853 155.657 15.064L152.841 17.928H158.137V19ZM160.306 19V17.176H161.618V19H160.306ZM168.912 8.44V19H167.68V9.816L164.96 11.608L164.4 10.68L167.76 8.44H168.912ZM177.865 8.44V19H176.633V9.816L173.913 11.608L173.353 10.68L176.713 8.44H177.865ZM184.546 18.072C186.476 18.072 187.447 16.8453 187.458 14.392C186.391 14.7973 185.474 15 184.706 15C182.402 15 181.25 13.928 181.25 11.784C181.25 10.7067 181.58 9.85333 182.242 9.224C182.903 8.59467 183.794 8.28 184.914 8.28C186.204 8.28 187.164 8.76 187.794 9.72C188.423 10.6693 188.738 12.072 188.738 13.928C188.738 15.7733 188.38 17.1067 187.666 17.928C186.962 18.7493 185.922 19.16 184.546 19.16C183.746 19.16 182.919 19.0853 182.066 18.936L181.65 18.872L181.762 17.88C182.722 18.008 183.65 18.072 184.546 18.072ZM184.802 13.912C185.452 13.912 186.204 13.768 187.058 13.48L187.474 13.336C187.442 10.6907 186.588 9.368 184.914 9.368C184.167 9.368 183.58 9.58667 183.154 10.024C182.738 10.4507 182.53 11.0373 182.53 11.784C182.53 13.2027 183.287 13.912 184.802 13.912ZM190.699 8.712C191.702 8.41333 192.774 8.264 193.915 8.264C195.067 8.264 195.899 8.48267 196.411 8.92C196.923 9.35733 197.179 10.056 197.179 11.016C197.179 11.5067 197.11 11.864 196.971 12.088C196.843 12.3013 196.736 12.4667 196.651 12.584C196.576 12.7013 196.475 12.8133 196.347 12.92C196.112 13.1013 195.926 13.2293 195.787 13.304L195.611 13.416C196.23 13.64 196.688 13.928 196.987 14.28C197.286 14.6213 197.435 15.1867 197.435 15.976C197.435 17.0533 197.158 17.8533 196.603 18.376C196.059 18.8987 195.195 19.16 194.011 19.16C193.072 19.16 192.08 19.0533 191.035 18.84L190.539 18.728L190.651 17.72C191.803 17.9547 192.88 18.072 193.883 18.072C195.408 18.0613 196.171 17.3787 196.171 16.024C196.171 14.7547 195.446 14.0933 193.995 14.04H191.867V12.984H193.995C194.443 12.984 194.875 12.808 195.291 12.456C195.707 12.0933 195.915 11.6187 195.915 11.032C195.915 10.4453 195.75 10.024 195.419 9.768C195.088 9.50133 194.534 9.368 193.755 9.368C192.902 9.368 192.059 9.448 191.227 9.608L190.811 9.688L190.699 8.712ZM204.724 8.44V19H203.492V9.816L200.772 11.608L200.212 10.68L203.572 8.44H204.724ZM215.309 19H208.557V17.96L211.645 14.712C212.178 14.1573 212.568 13.736 212.813 13.448C213.058 13.16 213.277 12.8187 213.469 12.424C213.672 12.0293 213.773 11.6347 213.773 11.24C213.773 10.5573 213.586 10.0773 213.213 9.8C212.84 9.52267 212.258 9.384 211.469 9.384C210.776 9.384 210.002 9.47467 209.149 9.656L208.733 9.736L208.637 8.712C209.65 8.424 210.696 8.28 211.773 8.28C212.85 8.28 213.661 8.50933 214.205 8.968C214.76 9.416 215.037 10.1307 215.037 11.112C215.037 11.8587 214.872 12.5093 214.541 13.064C214.21 13.6187 213.64 14.2853 212.829 15.064L210.013 17.928H215.309V19ZM224.262 19H217.51V17.96L220.598 14.712C221.132 14.1573 221.521 13.736 221.766 13.448C222.012 13.16 222.23 12.8187 222.422 12.424C222.625 12.0293 222.726 11.6347 222.726 11.24C222.726 10.5573 222.54 10.0773 222.166 9.8C221.793 9.52267 221.212 9.384 220.422 9.384C219.729 9.384 218.956 9.47467 218.102 9.656L217.686 9.736L217.59 8.712C218.604 8.424 219.649 8.28 220.726 8.28C221.804 8.28 222.614 8.50933 223.158 8.968C223.713 9.416 223.99 10.1307 223.99 11.112C223.99 11.8587 223.825 12.5093 223.494 13.064C223.164 13.6187 222.593 14.2853 221.782 15.064L218.966 17.928H224.262V19ZM231.583 8.44V19H230.351V9.816L227.631 11.608L227.071 10.68L230.431 8.44H231.583ZM235.385 19V17.176H236.697V19H235.385ZM238.918 22.552V11H240.102V11.576C240.912 11.0853 241.712 10.84 242.502 10.84C243.515 10.84 244.251 11.1653 244.71 11.816C245.168 12.456 245.398 13.5173 245.398 15C245.398 16.4827 245.126 17.5493 244.582 18.2C244.048 18.84 243.158 19.16 241.91 19.16C241.259 19.16 240.662 19.1013 240.118 18.984V22.552H238.918ZM242.326 11.912C242.006 11.912 241.659 11.9653 241.286 12.072C240.923 12.1787 240.635 12.2853 240.422 12.392L240.118 12.552V17.944C240.875 18.0613 241.451 18.12 241.846 18.12C242.71 18.12 243.312 17.8747 243.654 17.384C244.006 16.8933 244.182 16.0933 244.182 14.984C244.182 13.8747 244.022 13.0853 243.702 12.616C243.392 12.1467 242.934 11.912 242.326 11.912ZM248.555 19H247.355V11H248.539V11.56C249.403 11.08 250.23 10.84 251.019 10.84C252.086 10.84 252.8 11.128 253.163 11.704C253.536 12.28 253.723 13.304 253.723 14.776V19H252.539V14.808C252.539 13.6987 252.427 12.9413 252.203 12.536C251.99 12.12 251.526 11.912 250.811 11.912C250.47 11.912 250.107 11.9653 249.723 12.072C249.35 12.168 249.062 12.264 248.859 12.36L248.555 12.504V19ZM259.037 22.76C257.757 22.76 256.861 22.584 256.349 22.232C255.848 21.8907 255.597 21.2613 255.597 20.344C255.597 19.9067 255.693 19.5493 255.885 19.272C256.077 19.0053 256.402 18.7013 256.861 18.36C256.562 18.1573 256.413 17.7893 256.413 17.256C256.413 17.0747 256.546 16.7387 256.813 16.248L256.957 15.992C256.114 15.608 255.693 14.8027 255.693 13.576C255.693 11.752 256.69 10.84 258.685 10.84C259.197 10.84 259.672 10.8933 260.109 11L260.349 11.048L262.717 10.984V12.008L261.197 11.976C261.549 12.328 261.725 12.8613 261.725 13.576C261.725 14.5787 261.474 15.2827 260.973 15.688C260.482 16.0827 259.704 16.28 258.637 16.28C258.349 16.28 258.088 16.2587 257.853 16.216C257.661 16.6853 257.565 16.9893 257.565 17.128C257.565 17.4587 257.666 17.6667 257.869 17.752C258.072 17.8267 258.685 17.864 259.709 17.864C260.733 17.864 261.469 18.024 261.917 18.344C262.365 18.664 262.589 19.288 262.589 20.216C262.589 21.912 261.405 22.76 259.037 22.76ZM256.781 20.248C256.781 20.8133 256.936 21.2027 257.245 21.416C257.565 21.64 258.146 21.752 258.989 21.752C259.842 21.752 260.45 21.6347 260.813 21.4C261.186 21.1653 261.373 20.7707 261.373 20.216C261.373 19.672 261.24 19.32 260.973 19.16C260.706 19 260.184 18.92 259.405 18.92L257.677 18.84C257.325 19.096 257.085 19.32 256.957 19.512C256.84 19.704 256.781 19.9493 256.781 20.248ZM256.893 13.576C256.893 14.2053 257.032 14.6533 257.309 14.92C257.597 15.1867 258.066 15.32 258.717 15.32C259.368 15.32 259.832 15.1867 260.109 14.92C260.386 14.6533 260.525 14.2053 260.525 13.576C260.525 12.936 260.386 12.4827 260.109 12.216C259.832 11.9493 259.368 11.816 258.717 11.816C258.066 11.816 257.597 11.9547 257.309 12.232C257.032 12.4987 256.893 12.9467 256.893 13.576Z" fill="#4F4F4F"/>
</svg>
