<svg width="116" height="128" viewBox="0 0 116 128" fill="none" xmlns="http://www.w3.org/2000/svg">
<path d="M14.6471 82.5809H10.5178C4.81681 82.5809 0.195312 77.9594 0.195312 72.2584C0.195312 68.8379 2.96831 66.0649 6.38881 66.0649H14.6468L14.6471 82.5809Z" fill="#BD4150"/>
<path d="M93.0994 0H16.7124L14.5859 4.129V126H111.68L115.809 123.871V22.7097L93.0994 0Z" fill="#ECEAEC"/>
<path d="M16.711 117.677V0C14.4308 0 12.582 1.8485 12.582 4.129V123.871C12.582 126.152 14.4308 128 16.711 128H111.679C113.959 128 115.808 126.151 115.808 123.871H22.9045C19.4838 123.871 16.711 121.098 16.711 117.677Z" fill="#DAD8DB"/>
<path d="M115.807 22.3552C115.807 21.2603 115.372 20.21 114.598 19.4355L96.3709 1.20925C95.5967 0.435 94.5464 0 93.4514 0H93.0977V20.6453C93.0977 21.7852 94.0219 22.7097 95.1622 22.7097H115.807V22.3552Z" fill="#DAD8DB"/>
<path d="M70.3897 78.4519H6.38969C5.66569 78.4519 4.97044 78.3276 4.32444 78.0991L2.33594 81.4169V107.5C2.33594 110.921 5.10894 113.694 8.52944 113.694H70.3897L74.5187 111.484V82.5809C74.5187 80.3004 72.6702 78.4519 70.3897 78.4519Z" fill="#E15F78"/>
<path d="M4.32431 78.0988C1.92431 77.2456 0.195312 74.9508 0.195312 72.2578V109.419C0.195312 112.84 2.96831 115.613 6.38881 115.613H70.3888C72.6691 115.613 74.5178 113.764 74.5178 111.484H10.5178C7.09731 111.484 4.32431 108.711 4.32431 105.29V78.0988Z" fill="#DB4655"/>
<path d="M59.1151 94.8128H55.0626V90.8995H59.6433C60.7846 90.8995 61.7078 89.975 61.7078 88.835C61.7078 87.695 60.7843 86.7705 59.6433 86.7705H52.9981C51.8568 86.7705 50.9336 87.695 50.9336 88.835V105.23C50.9336 106.37 51.8571 107.295 52.9981 107.295C54.1391 107.295 55.0626 106.37 55.0626 105.23V98.942H59.1151C60.2563 98.942 61.1796 98.0175 61.1796 96.8775C61.1796 95.7375 60.2561 94.8128 59.1151 94.8128Z" fill="white"/>
<path d="M21.2494 86.71H16.6507C16.1022 86.71 15.5762 86.9287 15.1889 87.3167C14.8037 87.704 14.5874 88.2285 14.5874 88.7745H14.5859V105.291C14.5859 106.431 15.5094 107.355 16.6504 107.355C17.7914 107.355 18.7149 106.431 18.7149 105.291V100.17C19.6412 100.165 20.6594 100.161 21.2492 100.161C25.0072 100.161 28.0657 97.1435 28.0657 93.436C28.0659 89.727 25.0074 86.71 21.2494 86.71ZM21.2494 96.0315C20.6647 96.0315 19.6567 96.0355 18.7354 96.0405C18.7314 95.088 18.7214 90.839 18.7214 90.839H21.2497C22.7074 90.839 23.9372 92.0285 23.9372 93.4357C23.9372 94.843 22.7072 96.0315 21.2494 96.0315Z" fill="white"/>
<path d="M38.5618 86.9541H34.0235C33.475 86.9541 32.949 87.1719 32.5618 87.5599C32.1748 87.9479 31.957 88.4741 31.959 89.0226L31.971 97.0146C31.971 99.2434 31.9913 105.054 31.9913 105.054C31.9933 105.601 32.213 106.126 32.6023 106.513C32.9873 106.896 33.5115 107.111 34.056 107.111H34.064C34.064 107.111 37.429 107.098 38.7312 107.076C43.58 106.99 47.1002 102.767 47.1002 97.0329C47.1 91.0044 43.6685 86.9541 38.5618 86.9541ZM38.6585 102.947C38.0677 102.957 37.0455 102.966 36.1142 102.971C36.1082 101.081 36.1002 98.3774 36.1002 97.0144L36.0922 91.0828H38.562C42.7595 91.0828 42.9713 96.0386 42.9713 97.0323C42.971 99.9388 41.6382 102.895 38.6585 102.947Z" fill="white"/>
<path d="M43.485 69.8408C41.8923 69.8408 40.4528 69.0121 39.4408 67.4486C37.9368 65.1281 38.332 62.5001 40.5235 60.2378C42.7333 57.9556 47.2553 55.8083 52.697 54.0553C54.3945 50.8558 56.1225 47.1108 57.7373 42.9706C58.691 40.5241 59.461 38.3183 60.078 36.3456C57.3583 31.3596 55.7413 26.7176 56.1708 23.7033C56.6083 20.6448 58.8925 18.9231 62.2878 19.1106C63.2958 19.1651 65.701 19.6913 66.2818 23.3948C66.7253 26.2266 65.9793 30.8041 64.4833 36.0058C67.314 40.7811 71.195 45.8958 74.9913 49.8213C80.7293 49.4716 85.592 49.8898 88.0375 51.3656C89.9528 52.5208 90.7048 54.4048 90.0495 56.4038C88.977 59.6711 86.3863 61.1678 83.112 60.4048C80.356 59.7616 76.9408 57.3553 73.477 54.0148C67.9065 54.5048 61.35 55.6388 55.598 57.3303C52.1645 63.4926 48.4528 68.2901 45.336 69.4816C44.707 69.7228 44.086 69.8408 43.485 69.8408ZM42.9045 65.2048C43.2493 65.7351 43.4388 65.7241 43.5275 65.7138C44.842 65.5798 47.0315 63.3106 49.5315 59.4748C47.8783 60.1836 46.3965 60.9516 45.1505 61.7763C42.0255 63.8458 42.6888 64.8681 42.9045 65.2048ZM79.2755 53.7421C81.0395 55.1211 82.6788 56.0636 84.0498 56.3843C85.1203 56.6333 85.6708 56.5063 86.1263 55.1181C85.5175 54.1946 82.9268 53.7511 79.2755 53.7421ZM62.8783 41.0121C61.5335 44.8408 59.8883 48.8053 58.092 52.5211C61.961 51.5493 66.0395 50.7841 69.9348 50.2983C67.4165 47.4446 64.983 44.2391 62.8783 41.0121ZM61.8843 23.1553C60.4185 23.1553 60.342 23.7048 60.2573 24.2853C60.0415 25.8106 60.5778 27.9798 61.6363 30.4808C62.5698 26.0241 62.3803 23.6663 61.9265 23.1553C61.9125 23.1553 61.8985 23.1553 61.8843 23.1553Z" fill="#E15F78"/>
</svg>
