<svg width="32" height="32" viewBox="0 0 32 32" fill="none" xmlns="http://www.w3.org/2000/svg">
<path d="M28.1056 11.4394V20.5593C28.1056 22.0527 27.3056 23.4394 26.0122 24.1994L18.0922 28.7727C16.7989 29.5194 15.1989 29.5194 13.8922 28.7727L5.97224 24.1994C4.67891 23.4527 3.87891 22.066 3.87891 20.5593V11.4394C3.87891 9.94606 4.67891 8.55934 5.97224 7.79934L13.8922 3.22602C15.1856 2.47935 16.7856 2.47935 18.0922 3.22602L26.0122 7.79934C27.3056 8.55934 28.1056 9.93273 28.1056 11.4394Z" stroke="#3C757E" stroke-width="1.5" stroke-linecap="round" stroke-linejoin="round"/>
<path d="M16.0012 14.6664C17.717 14.6664 19.1079 13.2755 19.1079 11.5597C19.1079 9.84397 17.717 8.45312 16.0012 8.45312C14.2854 8.45312 12.8945 9.84397 12.8945 11.5597C12.8945 13.2755 14.2854 14.6664 16.0012 14.6664Z" stroke="#3C757E" stroke-width="1.5" stroke-linecap="round" stroke-linejoin="round"/>
<path d="M21.3346 22.2138C21.3346 19.8138 18.948 17.8672 16.0013 17.8672C13.0546 17.8672 10.668 19.8138 10.668 22.2138" stroke="#3C757E" stroke-width="1.5" stroke-linecap="round" stroke-linejoin="round"/>
</svg>
