<svg width="102" height="48" viewBox="0 0 102 48" fill="none" xmlns="http://www.w3.org/2000/svg">
<g clip-path="url(#clip0_149_212)">
<path d="M96.3334 0H5.66671C2.72119 0 0.333374 2.38781 0.333374 5.33333V42.6667C0.333374 45.6122 2.72119 48 5.66671 48H96.3334C99.2789 48 101.667 45.6122 101.667 42.6667V5.33333C101.667 2.38781 99.2789 0 96.3334 0Z" fill="#AA83FF"/>
<path d="M91 21.3333H8.33337V26.6666H91V21.3333Z" fill="#78FFAD"/>
<path d="M19 8H8.33337V18.6667H19V8Z" fill="#78FFAD"/>
<path d="M37.6667 29.3333H27V36H37.6667V29.3333Z" fill="#8E63D6"/>
<path d="M48.3334 36H37.6667V42.6667H48.3334V36Z" fill="#78FFAD"/>
<path d="M59 29.3333H48.3334V36H59V29.3333Z" fill="#78FFAD"/>
<path d="M69.6667 36H59V42.6667H69.6667V36Z" fill="#151426"/>
<path d="M80.3334 29.3333H69.6667V36H80.3334V29.3333Z" fill="#78FFAD"/>
<path d="M91 36H80.3334V42.6667H91V36Z" fill="#78FFAD"/>
<path d="M37.6667 5.33331H27V12H37.6667V5.33331Z" fill="#78FFAD"/>
<path d="M48.3334 12H37.6667V18.6667H48.3334V12Z" fill="#151426"/>
<path d="M59 5.33331H48.3334V12H59V5.33331Z" fill="#78FFAD"/>
<path d="M69.6667 12H59V18.6667H69.6667V12Z" fill="#78FFAD"/>
<path d="M80.3334 5.33331H69.6667V12H80.3334V5.33331Z" fill="#8E63D6"/>
<path d="M91 12H80.3334V18.6667H91V12Z" fill="#151426"/>
<path d="M15 9.5733H12.3334V17.12H15V9.5733Z" fill="#151426"/>
<path d="M17.4534 12H9.90671V14.6667H17.4534V12Z" fill="#151426"/>
</g>
<defs>
<clipPath id="clip0_149_212">
<rect width="101.333" height="48" fill="white" transform="translate(0.333374)"/>
</clipPath>
</defs>
</svg>
