<svg width="49" height="48" viewBox="0 0 49 48" fill="none" xmlns="http://www.w3.org/2000/svg">
<g clip-path="url(#clip0_149_204)">
<path d="M43 0H5.66668C2.72116 0 0.333344 2.38781 0.333344 5.33333V42.6667C0.333344 45.6122 2.72116 48 5.66668 48H43C45.9455 48 48.3333 45.6122 48.3333 42.6667V5.33333C48.3333 2.38781 45.9455 0 43 0Z" fill="#78FFAD"/>
<path d="M38.4322 6.12435L6.43329 38.1233L10.2045 41.8945L42.2035 9.89559L38.4322 6.12435Z" fill="#AA83FF"/>
<path d="M43 34.6666H37.6667V10.6666H13.6667V5.33331H43V34.6666Z" fill="#AA83FF"/>
<path d="M13.6667 10.6667H8.33334V16H13.6667V10.6667Z" fill="#151426"/>
<path d="M37.6667 34.6667H32.3333V40H37.6667V34.6667Z" fill="#151426"/>
</g>
<defs>
<clipPath id="clip0_149_204">
<rect width="48" height="48" fill="white" transform="translate(0.333344)"/>
</clipPath>
</defs>
</svg>
