<svg width="78" height="33" viewBox="0 0 78 33" fill="none" xmlns="http://www.w3.org/2000/svg">
<path d="M53.8045 19.3496V12.8997C61.2191 12.8997 67.2553 7.11085 67.2553 0H63.8926C63.8926 5.33735 59.373 9.67478 53.8045 9.67478V0H52.1228C45.179 0 39.2269 4.04666 36.6545 9.80361C35.6778 8.41565 34.391 7.25377 32.8875 6.40238C31.3841 5.551 29.7018 5.03149 27.9628 4.8816C26.2238 4.73172 24.4718 4.95521 22.8342 5.53585C21.1965 6.1165 19.7143 7.0397 18.4952 8.2384V3.22493H15.1325V0.0800662C6.65824 0.886147 0 7.7881 0 16.1246C0 25.009 7.55086 32.2493 16.8141 32.2493H18.4952V24.0109C19.7143 25.2096 21.1965 26.1328 22.8342 26.7134C24.4718 27.2941 26.2238 27.5175 27.9628 27.3677C29.7018 27.2178 31.3841 26.6983 32.8875 25.8469C34.391 24.9955 35.6778 23.8336 36.6545 22.4457C39.0248 27.7348 44.2374 31.5726 50.4418 32.1529V29.0225H53.8045V22.5745C59.3699 22.5745 63.8926 26.9119 63.8926 32.2493H67.2553C67.2553 25.1384 61.221 19.3496 53.8045 19.3496ZM15.1325 28.9274C8.50813 28.1213 3.36333 22.6865 3.36333 16.1246C3.36333 9.56281 8.51064 4.12793 15.1325 3.32185V28.9274ZM26.9022 24.1872C25.2395 24.1872 23.6141 23.7144 22.2315 22.8285C20.849 21.9425 19.7714 20.6833 19.1351 19.2101C18.4988 17.7368 18.3323 16.1157 18.6567 14.5517C18.9811 12.9877 19.7818 11.5511 20.9576 10.4235C22.1333 9.29592 23.6313 8.52803 25.2621 8.21694C26.8929 7.90584 28.5833 8.0655 30.1195 8.67574C31.6557 9.28598 32.9687 10.3194 33.8925 11.6453C34.8162 12.9712 35.3093 14.53 35.3093 16.1246C35.3082 18.2626 34.422 20.3127 32.8457 21.8245C31.2693 23.3363 29.1316 24.1861 26.9022 24.1872ZM50.4418 28.9274C43.8168 28.1213 38.672 22.6865 38.672 16.1246C38.672 9.56281 43.8193 4.12793 50.4418 3.32185V28.9274Z" fill="#AA83FF"/>
<path d="M72.8665 3.00448V0.374356H71.7222V0H74.4471V0.374356H73.3116V3.00448H72.8665ZM77.5449 3.00448L77.5631 0.678896L76.5092 2.2034H76.2097L75.1564 0.661442L75.1652 3.00448H74.717V0H75.2443L76.3522 1.6196L77.4821 0H78V3.00448H77.5449Z" fill="white"/>
</svg>
